<?xml version="1.0" standalone="no"?>
<!DOCTYPE svg PUBLIC "-//W3C//DTD SVG 20010904//EN"
 "http://www.w3.org/TR/2001/REC-SVG-20010904/DTD/svg10.dtd">
<svg version="1.0" xmlns="http://www.w3.org/2000/svg"
 width="300.000000pt" height="176.000000pt" viewBox="0 0 300.000000 176.000000"
 preserveAspectRatio="xMidYMid meet">
<metadata>
Created by potrace 1.10, written by Peter Selinger 2001-2011
</metadata>
<g transform="translate(0.000000,176.000000) scale(0.100000,-0.100000)"
fill="#000000" stroke="none">
<path d="M2141 1740 c-46 -21 -105 -63 -162 -117 l-36 -34 -48 21 c-95 41
-131 9 -76 -67 l30 -41 -23 -21 c-14 -13 -35 -21 -59 -21 -69 0 -104 -64 -69
-124 17 -28 18 -41 11 -83 -5 -28 -5 -69 0 -96 l8 -47 -49 0 c-47 0 -49 -1
-42 -22 3 -13 15 -39 25 -59 l18 -36 -52 14 c-28 7 -64 13 -79 13 l-28 0 0
331 c0 260 -3 330 -12 326 -9 -3 -13 -29 -13 -83 l0 -78 -126 3 c-161 4 -162
2 -157 -115 1 -45 7 -86 11 -90 5 -5 68 -10 140 -11 l132 -3 3 -25 3 -25 -196
0 c-135 0 -196 -3 -193 -11 2 -7 69 -11 193 -12 l189 -2 4 -462 4 -463 -141 0
c-87 0 -141 -4 -141 -10 0 -6 53 -10 140 -10 l140 0 0 -140 c0 -133 1 -140 20
-140 32 0 150 159 219 295 l38 74 13 -56 c32 -147 109 -238 184 -219 62 15
272 259 333 386 15 30 31 58 36 61 15 10 29 88 31 168 1 79 -2 84 -56 96 -24
5 -28 10 -28 39 0 30 4 34 31 40 46 9 115 82 130 138 12 43 14 45 36 37 36
-13 73 -11 79 5 7 19 -18 65 -54 99 l-30 29 33 82 c41 102 60 190 51 239 -8
43 -63 87 -109 87 -52 0 -93 25 -110 67 -34 87 -106 113 -196 73z m129 -20
c16 -11 34 -36 40 -55 16 -49 63 -85 109 -85 23 0 52 -9 72 -23 30 -20 34 -29
37 -72 3 -47 -7 -104 -28 -159 l-10 -26 -52 26 c-102 52 -209 129 -331 238
l-79 70 34 27 c45 38 127 79 156 79 13 0 37 -9 52 -20z m-37 -294 c63 -48 210
-139 240 -149 13 -4 -14 -57 -30 -57 -24 0 -172 78 -248 130 -55 39 -158 133
-235 216 -2 3 9 15 25 28 l30 24 71 -68 c40 -37 106 -93 147 -124z m-348 159
c17 -6 77 -59 135 -116 58 -58 135 -124 173 -148 37 -24 67 -45 67 -48 0 -2
-4 -1 -10 2 -5 3 -25 2 -44 -3 -31 -9 -38 -6 -92 36 -171 132 -304 261 -304
294 0 10 23 5 75 -17z m-409 -99 c1 0 4 -36 7 -78 l5 -78 -129 0 -129 0 0 79
c0 75 1 80 23 84 18 4 219 -2 223 -7z m442 -50 c41 -42 42 -45 22 -51 -41 -13
-84 3 -99 36 -12 27 -11 32 5 44 11 8 21 14 24 15 3 0 24 -20 48 -44z m-105
-20 c12 -13 28 -31 35 -40 14 -17 81 -21 117 -7 16 6 37 -5 97 -52 43 -33 78
-61 78 -62 0 -1 -17 -20 -39 -42 -37 -40 -69 -122 -56 -144 4 -5 -1 -9 -9 -9
-9 0 -16 7 -16 15 0 8 -7 15 -15 15 -8 0 -15 -4 -15 -9 0 -24 14 -41 35 -41
18 0 25 -7 30 -29 9 -40 69 -108 110 -122 19 -7 35 -16 35 -21 0 -13 -69 -21
-143 -16 -131 9 -239 84 -294 204 -40 87 -45 252 -8 237 9 -3 15 1 15 11 0 9
-6 16 -14 16 -20 0 -46 39 -46 67 0 24 34 53 63 53 10 0 28 -11 40 -24z m539
-198 c94 -71 94 -215 1 -285 -53 -40 -137 -44 -197 -9 -112 65 -113 234 -3
301 58 36 148 32 199 -7z m125 -64 c52 -55 69 -92 37 -80 -9 3 -27 9 -40 12
-13 3 -24 12 -24 18 0 7 -11 34 -24 59 -13 26 -18 47 -13 47 6 0 35 -25 64
-56z m-743 -92 c14 -26 13 -31 -9 -58 -13 -16 -25 -27 -27 -24 -3 3 -14 29
-26 58 l-21 52 34 0 c28 0 37 -6 49 -28z m86 -128 l41 -41 -37 -32 c-41 -37
-75 -36 -106 1 -25 28 -22 54 10 105 24 39 28 41 40 26 7 -10 30 -37 52 -59z
m-183 41 l51 -15 -5 -39 c-3 -21 0 -48 6 -59 10 -19 0 -38 -84 -158 l-95 -137
0 212 0 211 38 0 c21 0 61 -7 89 -15z m283 -115 c33 -17 40 -26 40 -50 l0 -30
-37 15 c-47 19 -76 54 -61 72 13 16 12 17 58 -7z m190 -37 c30 2 63 8 73 12
28 12 21 -24 -8 -37 -14 -6 -28 -23 -32 -37 -3 -14 -14 -37 -25 -50 -23 -30
-23 -46 0 -69 18 -18 16 -22 -59 -135 l-78 -116 -5 42 c-24 198 -33 237 -71
329 -7 17 -5 17 29 3 54 -23 58 -21 51 29 l-7 45 38 -11 c21 -5 63 -8 94 -5z
m-241 -41 c33 -66 51 -135 71 -272 l19 -135 -25 -26 c-13 -14 -21 -28 -18 -32
12 -12 85 57 131 124 l46 68 33 -28 c18 -16 48 -34 68 -41 20 -6 36 -14 36
-16 0 -24 -166 -227 -222 -271 -55 -44 -82 -42 -129 7 -44 46 -89 171 -89 248
0 58 -8 50 -58 -53 -36 -75 -193 -318 -213 -331 -5 -3 -9 103 -9 249 l0 254
101 146 102 146 42 -6 c23 -3 51 -1 61 5 24 13 30 9 53 -36z m441 -5 c24 -8
35 -18 35 -32 0 -18 -7 -20 -83 -20 -83 0 -112 11 -97 35 18 29 86 37 145 17z
m14 -83 c9 -3 16 -16 16 -29 0 -21 -3 -22 -92 -21 -93 1 -107 7 -94 41 4 11
24 15 80 15 41 0 81 -3 90 -6z m1 -94 c3 -11 3 -24 0 -30 -10 -15 -118 -12
-141 4 -33 25 1 43 88 45 38 1 48 -3 53 -19z m-89 -60 c31 0 54 -4 54 -10 0
-6 -9 -28 -20 -50 l-20 -39 -37 17 c-96 44 -114 66 -87 107 l16 25 20 -25 c16
-21 28 -25 74 -25z"/>
<path d="M2200 1620 c-30 -27 -50 -49 -45 -49 6 -1 35 21 65 49 30 27 51 49
45 49 -5 1 -35 -21 -65 -49z"/>
<path d="M1754 1405 c-10 -24 5 -65 22 -65 11 0 14 5 10 16 -3 9 -6 27 -6 40
0 27 -17 33 -26 9z"/>
<path d="M1943 1333 c-25 -10 -12 -23 22 -23 28 0 38 -5 47 -25 13 -28 28 -33
28 -10 0 38 -60 74 -97 58z"/>
<path d="M1819 1244 c-17 -36 -29 -69 -27 -74 2 -4 17 26 34 66 39 92 34 98
-7 8z"/>
<path d="M1947 1263 c-4 -3 -7 -15 -7 -25 0 -23 38 -25 47 -2 8 21 -24 43 -40
27z"/>
<path d="M1870 1119 c0 -6 11 -20 25 -31 14 -11 25 -28 25 -38 0 -24 18 -36
26 -17 7 20 -21 74 -45 87 -25 13 -31 13 -31 -1z"/>
<path d="M2205 1171 c-8 -14 12 -23 34 -16 32 10 70 -12 88 -52 10 -21 18 -40
20 -42 1 -1 6 0 12 3 16 10 -7 63 -41 91 -30 26 -100 35 -113 16z"/>
<path d="M2202 1078 c-7 -7 -12 -20 -12 -30 0 -22 42 -50 64 -42 19 7 20 16 4
32 -8 8 -8 15 0 25 7 8 9 17 5 20 -11 11 -48 8 -61 -5z"/>
<path d="M1674 695 c-4 -9 -2 -21 4 -27 15 -15 44 -1 40 19 -4 23 -36 29 -44
8z"/>
<path d="M1557 533 c-15 -14 -7 -43 12 -43 26 0 36 17 21 35 -14 16 -23 19
-33 8z"/>
<path d="M826 1511 c-4 -5 -9 -46 -13 -90 -8 -114 -12 -111 167 -111 119 0
150 3 160 15 13 16 10 168 -4 183 -12 12 -303 15 -310 3z m227 -18 l67 -6 0
-72 0 -72 -31 -7 c-40 -8 -163 -8 -211 0 l-38 7 0 78 0 79 73 0 c39 0 102 -3
140 -7z"/>
<path d="M585 1170 c-4 -6 -7 -110 -8 -231 -2 -215 -2 -220 -22 -214 -11 3
-52 8 -92 11 -70 7 -72 6 -78 -17 -16 -69 -71 -515 -63 -520 5 -3 77 -16 161
-28 84 -12 164 -24 179 -26 31 -5 48 16 48 59 0 14 11 36 25 50 14 14 25 34
25 45 0 45 9 51 79 51 63 0 69 -2 79 -25 6 -14 18 -25 25 -25 28 0 109 33 114
46 3 10 23 14 62 14 31 0 62 4 69 9 11 7 14 79 13 381 -1 205 -4 383 -7 395
-5 19 -15 23 -66 29 -102 10 -536 7 -543 -4z m585 -27 c3 -3 7 -172 8 -377 l4
-373 -32 -7 c-18 -3 -47 -6 -65 -6 -29 0 -33 4 -39 34 -10 52 -28 62 -84 47
-59 -15 -75 -29 -69 -58 3 -18 0 -23 -17 -23 -11 0 -38 -3 -58 -6 -34 -6 -38
-4 -38 14 0 29 -33 48 -106 63 l-61 12 -7 96 c-3 53 -6 207 -6 343 l0 247 23
4 c27 6 540 -4 547 -10z m-644 -439 l52 -6 4 -132 c3 -89 0 -147 -9 -181 -16
-63 -17 -102 -1 -111 7 -4 35 -13 63 -19 48 -11 50 -13 48 -44 0 -18 -3 -35
-6 -37 -6 -6 -313 37 -327 46 -5 3 6 109 25 250 19 135 35 247 35 249 0 2 15
1 33 -3 17 -3 55 -8 83 -12z m498 -301 c9 -26 16 -48 16 -49 0 -2 -15 -7 -32
-12 -18 -6 -40 -13 -49 -17 -13 -5 -20 4 -33 41 -9 26 -14 49 -13 51 4 3 79
31 89 32 3 1 13 -20 22 -46z m-321 16 c26 -6 49 -15 52 -18 5 -9 -24 -123 -33
-133 -8 -8 -122 18 -134 30 -7 7 14 111 27 132 4 6 14 9 23 6 10 -3 38 -10 65
-17z"/>
<path d="M836 1122 c-9 -15 11 -52 27 -52 30 0 56 13 60 31 3 10 2 21 -3 24
-4 3 -10 -4 -13 -15 -7 -27 -45 -26 -56 2 -5 14 -10 17 -15 10z"/>
<path d="M766 970 c6 -63 5 -70 -11 -70 -10 0 -26 7 -36 16 -24 22 -33 1 -11
-26 16 -20 23 -21 48 -13 25 8 29 15 32 54 4 53 -5 109 -19 109 -5 0 -7 -27
-3 -70z"/>
<path d="M845 1005 c-65 -64 14 -154 86 -97 45 38 16 122 -43 122 -10 0 -30
-11 -43 -25z m83 -42 c3 -27 -1 -35 -22 -45 -22 -9 -29 -8 -46 7 -11 10 -20
24 -20 31 0 22 32 45 59 42 21 -2 27 -9 29 -35z"/>
<path d="M985 1018 c-2 -7 -3 -40 -2 -73 2 -58 3 -60 30 -63 55 -6 97 44 65
77 -7 6 -13 24 -13 39 0 24 -4 27 -38 30 -24 2 -39 -1 -42 -10z m59 -23 c-4
-8 -10 -15 -15 -15 -5 0 -9 -7 -9 -15 0 -8 9 -15 19 -15 23 0 37 -18 25 -30
-5 -4 -19 -11 -31 -15 -22 -6 -23 -4 -23 49 0 49 2 56 20 56 13 0 18 -5 14
-15z"/>
<path d="M685 790 c-11 -18 18 -21 200 -18 132 2 179 6 183 16 5 15 -373 18
-383 2z"/>
<path d="M684 701 c-17 -17 20 -21 192 -21 132 0 195 3 192 10 -3 10 -374 20
-384 11z"/>
<path d="M907 614 c-16 -17 10 -24 84 -24 64 0 79 3 79 15 0 12 -15 15 -78 15
-43 0 -82 -3 -85 -6z"/>
<path d="M543 525 c0 -33 2 -45 4 -27 2 18 2 45 0 60 -2 15 -4 0 -4 -33z"/>
<path d="M1117 243 c-4 -3 -7 -48 -7 -99 0 -90 1 -94 24 -100 33 -8 303 -1
312 9 10 10 10 169 0 185 -5 9 -51 12 -165 12 -87 0 -161 -3 -164 -7z m297
-19 c13 -5 16 -22 16 -79 l0 -72 -88 -6 c-49 -3 -116 -3 -150 0 l-62 6 0 72
c0 39 3 75 7 78 8 9 256 9 277 1z"/>
</g>
</svg>
