<?xml version="1.0" standalone="no"?>
<!DOCTYPE svg PUBLIC "-//W3C//DTD SVG 20010904//EN"
 "http://www.w3.org/TR/2001/REC-SVG-20010904/DTD/svg10.dtd">
<svg version="1.0" xmlns="http://www.w3.org/2000/svg"
 width="300.000000pt" height="200.000000pt" viewBox="0 0 300.000000 200.000000"
 preserveAspectRatio="xMidYMid meet">
<metadata>
Created by potrace 1.10, written by Peter Selinger 2001-2011
</metadata>
<g transform="translate(0.000000,200.000000) scale(0.100000,-0.100000)"
fill="#000000" stroke="none">
<path d="M1419 1625 c-25 -8 -61 -31 -81 -51 -73 -72 -101 -174 -101 -359 1
-212 52 -343 153 -395 52 -26 112 -33 177 -20 50 10 65 19 108 64 58 60 80
117 96 255 12 100 1 240 -26 328 -20 66 -69 132 -122 161 -52 29 -143 37 -204
17z m168 -17 c56 -25 93 -61 123 -122 37 -74 50 -149 50 -281 0 -170 -34 -281
-104 -342 -47 -42 -96 -57 -172 -50 -88 7 -139 42 -182 127 -42 83 -53 148
-51 289 3 215 51 328 159 375 42 18 139 21 177 4z"/>
<path d="M1447 1565 c-99 -41 -133 -136 -131 -375 1 -215 45 -304 162 -331 45
-10 116 12 147 45 82 88 100 441 30 575 -14 26 -37 55 -52 66 -33 24 -120 35
-156 20z m133 -24 c79 -42 120 -213 100 -416 -14 -139 -39 -202 -93 -235 -64
-40 -171 -17 -208 44 -67 109 -73 411 -11 535 43 86 130 116 212 72z"/>
<path d="M873 1548 c-300 -423 -333 -475 -333 -517 l0 -41 189 0 c116 0 192 4
196 10 4 7 -58 10 -178 10 l-185 0 -5 26 c-4 25 47 111 157 261 17 23 74 102
126 177 93 132 117 154 154 140 14 -5 16 -38 16 -259 0 -159 4 -256 10 -260 7
-4 10 87 10 264 l0 271 -50 0 -49 0 -58 -82z"/>
<path d="M2057 1349 c-175 -249 -197 -285 -197 -320 l0 -39 195 0 c123 0 195
4 195 10 0 6 -68 10 -185 10 l-185 0 0 30 c0 17 9 43 19 58 11 15 90 128 176
252 86 124 168 235 182 248 25 22 59 23 74 0 3 -5 6 -109 5 -231 -1 -122 2
-238 5 -257 4 -19 7 90 8 243 l1 277 -48 0 -49 0 -196 -281z"/>
<path d="M905 1498 c-136 -189 -278 -399 -272 -404 4 -5 240 326 277 389 24
41 21 50 -5 15z"/>
<path d="M2213 1477 c-50 -75 -167 -242 -173 -247 -14 -12 -82 -122 -78 -126
6 -5 249 337 272 384 23 45 13 40 -21 -11z"/>
<path d="M2268 1453 c-9 -122 -8 -329 2 -343 7 -10 10 51 10 193 0 206 -4 260
-12 150z"/>
<path d="M946 1478 c-8 -32 -8 -403 1 -394 6 6 13 416 7 416 -1 0 -4 -10 -8
-22z"/>
<path d="M670 1070 c-10 -7 27 -10 118 -10 76 0 131 4 128 9 -8 12 -228 13
-246 1z"/>
<path d="M1061 1071 c-11 -7 -4 -10 25 -13 32 -2 40 -7 42 -25 3 -21 -1 -23
-43 -23 -28 0 -44 -4 -40 -10 3 -5 28 -10 56 -10 l49 0 0 45 0 45 -37 0 c-21
0 -44 -4 -52 -9z"/>
<path d="M1990 1070 c-15 -5 32 -8 119 -9 79 -1 142 1 140 4 -9 9 -234 13
-259 5z"/>
<path d="M2374 1069 c-3 -5 13 -9 34 -9 31 0 41 -4 45 -19 7 -27 0 -31 -50
-31 -27 0 -42 -4 -38 -10 3 -5 28 -10 56 -10 l49 0 0 44 0 44 -45 0 c-25 0
-47 -4 -51 -9z"/>
<path d="M942 898 l-2 -98 45 0 45 0 0 92 c0 108 -17 111 -22 3 -3 -63 -5 -70
-25 -73 -23 -3 -28 15 -36 128 -2 25 -4 1 -5 -52z"/>
<path d="M2340 936 c0 -87 -9 -118 -34 -114 -19 3 -22 11 -26 83 -6 97 -20 76
-20 -31 l0 -74 45 0 45 0 0 95 c0 52 -2 95 -5 95 -3 0 -5 -24 -5 -54z"/>
<path d="M600 405 c0 -60 3 -75 15 -75 10 0 15 10 15 30 0 25 4 30 23 30 29 0
47 18 47 45 0 31 -19 45 -62 45 l-38 0 0 -75z m65 30 c0 -11 -8 -21 -17 -23
-14 -3 -18 3 -18 23 0 20 4 26 18 23 9 -2 17 -12 17 -23z"/>
<path d="M740 418 c-12 -35 -25 -69 -27 -75 -3 -7 2 -13 12 -13 9 0 19 9 22
20 4 14 14 20 33 20 19 0 29 -6 33 -20 3 -11 13 -20 22 -20 18 0 18 -2 -15 95
-12 35 -23 51 -37 53 -16 2 -24 -8 -43 -60z m54 10 c9 -35 8 -38 -15 -38 -15
0 -19 4 -15 16 3 9 6 22 6 30 0 22 17 16 24 -8z"/>
<path d="M886 461 c-10 -11 -18 -36 -18 -56 0 -44 26 -75 63 -75 46 0 54 8 53
48 -1 32 -4 37 -27 40 -19 2 -27 -1 -27 -12 0 -9 7 -16 15 -16 8 0 15 -7 15
-15 0 -25 -49 -19 -59 7 -17 45 13 83 57 71 16 -4 22 -1 22 11 0 24 -72 22
-94 -3z"/>
<path d="M1020 404 l0 -75 42 3 c49 4 66 28 19 28 -24 0 -31 4 -31 20 0 15 7
20 25 20 14 0 25 6 25 14 0 9 -8 12 -25 8 -20 -3 -25 0 -25 17 0 17 6 21 30
21 17 0 30 5 30 10 0 6 -20 10 -45 10 l-45 0 0 -76z"/>
<path d="M1190 405 c0 -63 3 -75 16 -75 14 0 16 8 11 55 -3 30 -2 55 2 55 4 0
19 -25 34 -55 19 -39 32 -55 47 -55 18 0 20 7 20 75 0 63 -3 75 -16 75 -14 0
-16 -8 -11 -55 3 -30 4 -55 2 -55 -2 0 -18 25 -35 55 -21 37 -38 55 -51 55
-17 0 -19 -8 -19 -75z"/>
<path d="M1370 460 c-42 -42 -8 -130 51 -130 59 0 91 75 53 128 -20 29 -76 30
-104 2z m71 -10 c34 -19 22 -90 -15 -90 -44 0 -62 52 -30 84 18 19 20 19 45 6z"/>
<path d="M1510 470 c0 -5 9 -10 20 -10 18 0 20 -7 20 -65 0 -51 3 -65 15 -65
12 0 15 14 15 65 0 58 2 65 20 65 11 0 20 5 20 10 0 6 -25 10 -55 10 -30 0
-55 -4 -55 -10z"/>
<path d="M1695 405 c0 -65 2 -75 18 -75 13 0 17 7 15 32 -3 28 0 32 21 33 37
0 39 25 2 25 -24 0 -31 4 -31 20 0 16 7 20 30 20 17 0 30 5 30 10 0 6 -19 10
-42 10 l-43 0 0 -75z"/>
<path d="M1827 467 c-10 -6 -20 -28 -23 -47 -12 -72 67 -119 116 -70 26 26 27
90 2 113 -22 20 -71 22 -95 4z m71 -19 c13 -13 16 -47 6 -72 -9 -23 -51 -20
-64 4 -25 46 23 103 58 68z"/>
<path d="M1970 427 c0 -65 20 -97 60 -97 45 0 60 23 60 91 0 46 -3 59 -15 59
-12 0 -15 -13 -15 -61 0 -60 0 -60 -27 -57 -27 3 -28 6 -31 61 -2 42 -7 57
-17 57 -11 0 -15 -13 -15 -53z"/>
<path d="M2130 405 c0 -63 3 -75 16 -75 14 0 16 8 11 55 -3 30 -2 55 2 55 4 0
19 -25 34 -55 19 -39 32 -55 47 -55 18 0 20 7 20 75 0 63 -3 75 -16 75 -14 0
-16 -8 -11 -55 3 -30 4 -55 2 -55 -2 0 -17 25 -34 55 -21 38 -37 55 -51 55
-18 0 -20 -7 -20 -75z"/>
<path d="M2300 404 l0 -77 42 6 c107 14 105 147 -2 147 l-40 0 0 -76z m74 40
c28 -28 12 -84 -24 -84 -17 0 -20 7 -20 50 0 54 14 65 44 34z"/>
</g>
</svg>
